<svg width="463" height="189" viewBox="0 0 463 189" fill="none" xmlns="http://www.w3.org/2000/svg">
<path d="M58.2823 153.121H36.257C29.3671 153.121 23.8325 151.031 19.6533 146.852C15.5871 142.673 13.554 137.082 13.554 130.079V67.2223C13.554 60.2194 15.5871 54.6284 19.6533 50.4492C23.8325 46.27 29.3671 44.1805 36.257 44.1805H58.2823C65.1723 44.1805 70.6504 46.27 74.7166 50.4492C78.8957 54.6284 80.9853 60.2194 80.9853 67.2223V75.6936C80.9853 76.7101 80.5335 77.2184 79.6299 77.2184H77.2579C76.3543 77.2184 75.9025 76.7101 75.9025 75.6936V67.3917C75.9025 61.6313 74.3777 57.1133 71.3281 53.8377C68.2784 50.5622 63.9298 48.9244 58.2823 48.9244H36.257C30.6095 48.9244 26.2609 50.5622 23.2113 53.8377C20.1616 57.1133 18.6368 61.6313 18.6368 67.3917V129.91C18.6368 135.67 20.1616 140.188 23.2113 143.464C26.2609 146.739 30.6095 148.377 36.257 148.377H58.2823C63.9298 148.377 68.2784 146.739 71.3281 143.464C74.3777 140.188 75.9025 135.67 75.9025 129.91V121.608C75.9025 120.591 76.3543 120.083 77.2579 120.083H79.6299C80.5335 120.083 80.9853 120.591 80.9853 121.608V130.079C80.9853 137.082 78.8957 142.673 74.7166 146.852C70.6504 151.031 65.1723 153.121 58.2823 153.121ZM109.274 153.121H106.902C105.998 153.121 105.547 152.613 105.547 151.596V45.7053C105.547 44.6887 105.998 44.1805 106.902 44.1805H109.274C110.178 44.1805 110.629 44.6887 110.629 45.7053V93.8221C110.629 94.7257 111.138 95.1775 112.154 95.1775H164.676C165.693 95.1775 166.201 94.7257 166.201 93.8221V45.7053C166.201 44.6887 166.653 44.1805 167.556 44.1805H169.928C170.832 44.1805 171.284 44.6887 171.284 45.7053V151.596C171.284 152.613 170.832 153.121 169.928 153.121H167.556C166.653 153.121 166.201 152.613 166.201 151.596V101.277C166.201 100.373 165.693 99.9214 164.676 99.9214H112.154C111.138 99.9214 110.629 100.373 110.629 101.277V151.596C110.629 152.613 110.178 153.121 109.274 153.121ZM203.874 153.121H201.502C200.599 153.121 200.147 152.613 200.147 151.596V45.7053C200.147 44.6887 200.599 44.1805 201.502 44.1805H239.623C246.513 44.1805 251.991 46.27 256.057 50.4492C260.236 54.6284 262.326 60.2194 262.326 67.2223V84.1648C262.326 90.4901 260.632 95.6858 257.243 99.752C253.855 103.705 249.28 106.077 243.52 106.868V107.546L264.359 151.596C264.924 152.613 264.698 153.121 263.681 153.121H260.632C259.728 153.121 258.994 152.613 258.429 151.596L237.759 107.207H206.754C205.738 107.207 205.23 107.658 205.23 108.562V151.596C205.23 152.613 204.778 153.121 203.874 153.121ZM206.754 102.463H239.623C245.27 102.463 249.619 100.825 252.669 97.5494C255.718 94.2739 257.243 89.7559 257.243 83.9954V67.3917C257.243 61.6313 255.718 57.1133 252.669 53.8377C249.619 50.5622 245.27 48.9244 239.623 48.9244H206.754C205.738 48.9244 205.23 49.3762 205.23 50.2798V101.107C205.23 102.011 205.738 102.463 206.754 102.463ZM309.303 148.377H330.481C336.129 148.377 340.477 146.739 343.527 143.464C346.577 140.188 348.101 135.67 348.101 129.91V67.3917C348.101 61.6313 346.577 57.1133 343.527 53.8377C340.477 50.5622 336.129 48.9244 330.481 48.9244H309.303C303.656 48.9244 299.307 50.5622 296.257 53.8377C293.208 57.1133 291.683 61.6313 291.683 67.3917V129.91C291.683 135.67 293.208 140.188 296.257 143.464C299.307 146.739 303.656 148.377 309.303 148.377ZM330.481 153.121H309.303C302.413 153.121 296.879 151.031 292.699 146.852C288.633 142.673 286.6 137.082 286.6 130.079V67.2223C286.6 60.2194 288.633 54.6284 292.699 50.4492C296.879 46.27 302.413 44.1805 309.303 44.1805H330.481C337.371 44.1805 342.849 46.27 346.916 50.4492C351.095 54.6284 353.184 60.2194 353.184 67.2223V130.079C353.184 137.082 351.095 142.673 346.916 146.852C342.849 151.031 337.371 153.121 330.481 153.121Z" fill="white"/>
<path d="M421.504 77.2425H448.951C449.968 77.2425 450.476 77.6943 450.476 78.5979V80.631C450.476 81.5346 449.968 81.9864 448.951 81.9864H421.504V109.603C421.504 110.619 421.052 111.128 420.149 111.128H417.777C416.873 111.128 416.421 110.619 416.421 109.603V81.9864H388.975C387.958 81.9864 387.45 81.5346 387.45 80.631V78.5979C387.45 77.6943 387.958 77.2425 388.975 77.2425H416.421V49.6262C416.421 48.6096 416.873 48.1014 417.777 48.1014H420.149C421.052 48.1014 421.504 48.6096 421.504 49.6262V77.2425Z" fill="white"/>
</svg>
