<svg width="136" height="55" viewBox="0 0 136 55" fill="none" xmlns="http://www.w3.org/2000/svg">
<path d="M17.0074 44.5797H10.5802C8.56964 44.5797 6.9546 43.9699 5.73507 42.7504C4.5485 41.5309 3.95522 39.8994 3.95522 37.8558V19.5135C3.95522 17.47 4.5485 15.8384 5.73507 14.6189C6.9546 13.3994 8.56964 12.7896 10.5802 12.7896H17.0074C19.018 12.7896 20.6166 13.3994 21.8031 14.6189C23.0227 15.8384 23.6324 17.47 23.6324 19.5135V21.9855C23.6324 22.2822 23.5006 22.4305 23.2369 22.4305H22.5448C22.2811 22.4305 22.1492 22.2822 22.1492 21.9855V19.5629C22.1492 17.882 21.7043 16.5636 20.8143 15.6077C19.9244 14.6519 18.6555 14.174 17.0074 14.174H10.5802C8.9322 14.174 7.66324 14.6519 6.77331 15.6077C5.88339 16.5636 5.43843 17.882 5.43843 19.5629V37.8064C5.43843 39.4874 5.88339 40.8058 6.77331 41.7616C7.66324 42.7175 8.9322 43.1954 10.5802 43.1954H17.0074C18.6555 43.1954 19.9244 42.7175 20.8143 41.7616C21.7043 40.8058 22.1492 39.4874 22.1492 37.8064V35.3838C22.1492 35.0872 22.2811 34.9389 22.5448 34.9389H23.2369C23.5006 34.9389 23.6324 35.0872 23.6324 35.3838V37.8558C23.6324 39.8994 23.0227 41.5309 21.8031 42.7504C20.6166 43.9699 19.018 44.5797 17.0074 44.5797ZM31.8874 44.5797H31.1953C30.9316 44.5797 30.7997 44.4314 30.7997 44.1347V13.2346C30.7997 12.938 30.9316 12.7896 31.1953 12.7896H31.8874C32.1511 12.7896 32.2829 12.938 32.2829 13.2346V27.2756C32.2829 27.5393 32.4313 27.6711 32.7279 27.6711H48.0544C48.351 27.6711 48.4993 27.5393 48.4993 27.2756V13.2346C48.4993 12.938 48.6312 12.7896 48.8949 12.7896H49.587C49.8507 12.7896 49.9825 12.938 49.9825 13.2346V44.1347C49.9825 44.4314 49.8507 44.5797 49.587 44.5797H48.8949C48.6312 44.5797 48.4993 44.4314 48.4993 44.1347V29.451C48.4993 29.1873 48.351 29.0555 48.0544 29.0555H32.7279C32.4313 29.0555 32.2829 29.1873 32.2829 29.451V44.1347C32.2829 44.4314 32.1511 44.5797 31.8874 44.5797ZM59.4928 44.5797H58.8007C58.537 44.5797 58.4052 44.4314 58.4052 44.1347V13.2346C58.4052 12.938 58.537 12.7896 58.8007 12.7896H69.9247C71.9353 12.7896 73.5339 13.3994 74.7204 14.6189C75.94 15.8384 76.5497 17.47 76.5497 19.5135V24.4575C76.5497 26.3033 76.0553 27.8195 75.0665 29.006C74.0777 30.1596 72.7428 30.8518 71.0619 31.0825V31.2803L77.143 44.1347C77.3078 44.4314 77.2419 44.5797 76.9452 44.5797H76.0553C75.7916 44.5797 75.5774 44.4314 75.4126 44.1347L69.3809 31.1814H60.3333C60.0367 31.1814 59.8884 31.3132 59.8884 31.5769V44.1347C59.8884 44.4314 59.7565 44.5797 59.4928 44.5797ZM60.3333 29.7971H69.9247C71.5727 29.7971 72.8417 29.3192 73.7316 28.3633C74.6216 27.4075 75.0665 26.0891 75.0665 24.4081V19.5629C75.0665 17.882 74.6216 16.5636 73.7316 15.6077C72.8417 14.6519 71.5727 14.174 69.9247 14.174H60.3333C60.0367 14.174 59.8884 14.3058 59.8884 14.5695V29.4016C59.8884 29.6652 60.0367 29.7971 60.3333 29.7971ZM90.2582 43.1954H96.4382C98.0862 43.1954 99.3552 42.7175 100.245 41.7616C101.135 40.8058 101.58 39.4874 101.58 37.8064V19.5629C101.58 17.882 101.135 16.5636 100.245 15.6077C99.3552 14.6519 98.0862 14.174 96.4382 14.174H90.2582C88.6102 14.174 87.3412 14.6519 86.4513 15.6077C85.5614 16.5636 85.1164 17.882 85.1164 19.5629V37.8064C85.1164 39.4874 85.5614 40.8058 86.4513 41.7616C87.3412 42.7175 88.6102 43.1954 90.2582 43.1954ZM96.4382 44.5797H90.2582C88.2476 44.5797 86.6326 43.9699 85.413 42.7504C84.2265 41.5309 83.6332 39.8994 83.6332 37.8558V19.5135C83.6332 17.47 84.2265 15.8384 85.413 14.6189C86.6326 13.3994 88.2476 12.7896 90.2582 12.7896H96.4382C98.4488 12.7896 100.047 13.3994 101.234 14.6189C102.453 15.8384 103.063 17.47 103.063 19.5135V37.8558C103.063 39.8994 102.453 41.5309 101.234 42.7504C100.047 43.9699 98.4488 44.5797 96.4382 44.5797Z" fill="black"/>
<path d="M123 22.4375H131.009C131.306 22.4375 131.454 22.5694 131.454 22.833V23.4263C131.454 23.69 131.306 23.8218 131.009 23.8218H123V31.8806C123 32.1772 122.868 32.3256 122.604 32.3256H121.912C121.648 32.3256 121.517 32.1772 121.517 31.8806V23.8218H113.507C113.211 23.8218 113.062 23.69 113.062 23.4263V22.833C113.062 22.5694 113.211 22.4375 113.507 22.4375H121.517V14.3788C121.517 14.0821 121.648 13.9338 121.912 13.9338H122.604C122.868 13.9338 123 14.0821 123 14.3788V22.4375Z" fill="black"/>
</svg>
